<?xml version="1.0" standalone="no"?>
<!DOCTYPE svg PUBLIC "-//W3C//DTD SVG 20010904//EN"
 "http://www.w3.org/TR/2001/REC-SVG-20010904/DTD/svg10.dtd">
<svg version="1.0" xmlns="http://www.w3.org/2000/svg"
 width="810.000000pt" height="200.000000pt" viewBox="0 0 810.000000 200.000000"
 preserveAspectRatio="xMidYMid meet">
<metadata>
Created by potrace 1.16, written by Peter Selinger 2001-2019
</metadata>
<g transform="translate(0.000000,200.000000) scale(0.100000,-0.100000)"
fill="#000000" stroke="none">
<path d="M0 1000 l0 -1000 4050 0 4050 0 0 1000 0 1000 -4050 0 -4050 0 0
-1000z m3008 158 l2 -198 -39 0 c-22 0 -41 5 -43 11 -3 9 -9 9 -25 0 -54 -28
-141 4 -158 60 -7 20 -8 19 -26 -10 -24 -40 -67 -61 -126 -61 -120 0 -177 113
-100 196 28 31 42 37 84 41 62 6 114 -16 142 -60 l20 -31 9 24 c17 44 50 65
100 65 26 0 55 -4 65 -9 15 -7 17 -1 17 76 0 47 3 88 7 92 4 4 21 6 38 4 l30
-3 3 -197z m1162 107 c0 -67 3 -85 14 -85 8 0 18 5 21 10 10 17 68 11 103 -10
l32 -20 0 -100 0 -100 -35 0 -35 0 0 71 c0 82 -11 109 -45 109 -38 0 -55 -35
-55 -111 l0 -67 -89 -1 c-112 0 -124 9 -129 110 -3 50 -8 69 -18 69 -8 0 -14
10 -14 25 0 16 6 25 15 25 11 0 15 12 15 45 l0 45 39 0 c40 0 40 0 43 -42 2
-36 7 -44 26 -46 17 -3 22 -10 22 -33 0 -24 -4 -29 -25 -29 -23 0 -25 -4 -25
-45 0 -39 3 -47 25 -55 14 -5 26 -17 27 -27 2 -31 16 168 17 260 l1 87 35 0
35 0 0 -85z m-1730 -75 c16 -9 18 -14 8 -35 -9 -19 -16 -23 -35 -19 -14 4 -33
0 -48 -10 -52 -34 -18 -113 44 -104 24 3 32 0 41 -20 14 -32 1 -42 -60 -42
-81 0 -130 47 -130 125 0 36 38 91 74 105 29 12 84 12 106 0z m787 -10 c28
-16 53 -65 53 -102 0 -5 -38 -8 -85 -8 -63 0 -85 -3 -85 -13 0 -33 50 -48 90
-27 25 13 71 -6 63 -27 -9 -22 -58 -43 -103 -43 -47 0 -92 20 -114 52 -19 27
-20 94 -2 126 32 59 122 80 183 42z m1557 -1 l26 -20 26 20 c35 28 77 26 111
-3 27 -23 28 -28 28 -118 l0 -93 -37 -3 -38 -3 0 73 c0 88 -14 114 -53 104
-25 -6 -26 -9 -29 -89 l-3 -82 -37 -3 -38 -3 0 73 c0 88 -14 114 -53 104 -25
-6 -26 -9 -29 -89 l-3 -82 -37 -3 -38 -3 0 115 0 116 40 0 c22 0 40 -5 40 -11
0 -5 10 -3 22 5 31 22 70 20 102 -5z m404 1 c32 -20 52 -54 52 -91 0 -17 -8
-19 -85 -19 -86 0 -103 -8 -73 -38 15 -15 70 -16 84 -2 13 13 64 -4 64 -20 0
-20 -65 -50 -108 -50 -83 0 -139 58 -129 132 12 91 114 137 195 88z m-1711
-45 c15 -30 30 -55 33 -55 4 0 17 25 29 55 20 49 26 55 52 55 27 0 33 -6 58
-62 l28 -63 28 63 28 62 83 0 84 0 0 -116 0 -115 -37 3 -38 3 -3 110 -3 110
-60 -112 c-52 -97 -64 -113 -85 -113 -21 0 -30 10 -53 63 l-29 62 -27 -63
c-25 -56 -31 -63 -54 -60 -22 2 -35 21 -83 108 -32 58 -58 108 -58 113 0 4 18
7 40 7 39 0 41 -2 67 -55z"/>
</g>
</svg>
