<?xml version="1.0" standalone="no"?>
<!DOCTYPE svg PUBLIC "-//W3C//DTD SVG 20010904//EN"
 "http://www.w3.org/TR/2001/REC-SVG-20010904/DTD/svg10.dtd">
<svg version="1.0" xmlns="http://www.w3.org/2000/svg"
 width="810.000000pt" height="200.000000pt" viewBox="0 0 810.000000 200.000000"
 preserveAspectRatio="xMidYMid meet">
<metadata>
Created by potrace 1.16, written by Peter Selinger 2001-2019
</metadata>
<g transform="translate(0.000000,200.000000) scale(0.100000,-0.100000)"
fill="#000000" stroke="none">
<path d="M0 1000 l0 -1000 4050 0 4050 0 0 1000 0 1000 -4050 0 -4050 0 0
-1000z m3010 155 l0 -195 -39 0 c-22 0 -41 5 -43 11 -3 9 -9 9 -25 0 -54 -28
-141 4 -158 60 -7 20 -8 19 -26 -10 -24 -40 -67 -61 -126 -61 -141 0 -186 161
-63 225 61 32 155 9 187 -45 l16 -28 21 31 c12 18 33 38 46 45 25 13 80 12
113 -2 15 -7 17 0 17 78 l0 86 40 0 40 0 0 -195z m1160 109 c0 -85 0 -86 23
-78 42 14 104 9 126 -10 19 -17 21 -31 21 -118 l0 -98 -35 0 -35 0 0 71 c0 82
-11 109 -45 109 -38 0 -55 -35 -55 -112 l0 -68 -34 0 -34 0 -4 168 c-5 220 -5
222 38 222 l34 0 0 -86z m-140 -23 c0 -33 4 -40 23 -43 33 -5 37 -55 5 -60
-20 -3 -23 -10 -26 -51 -3 -42 0 -49 17 -54 19 -5 45 -56 34 -67 -4 -3 -25 -6
-48 -6 -60 0 -78 24 -83 111 -3 50 -8 69 -18 69 -8 0 -14 10 -14 25 0 16 6 25
15 25 11 0 15 12 15 45 l0 45 40 0 c40 0 40 0 40 -39z m-1590 -51 c16 -9 18
-14 8 -35 -9 -19 -16 -23 -35 -19 -14 4 -33 0 -48 -10 -52 -34 -18 -113 44
-104 24 3 32 0 41 -20 14 -32 1 -42 -58 -42 -81 0 -132 46 -132 119 0 43 35
96 74 111 29 12 84 12 106 0z m779 -6 c33 -20 46 -39 56 -82 l7 -32 -86 0
c-64 0 -86 -3 -86 -13 0 -33 50 -48 90 -27 25 13 71 -6 63 -27 -9 -22 -58 -43
-103 -43 -47 0 -92 20 -114 52 -20 28 -21 90 -2 127 29 54 120 78 175 45z
m1556 4 c14 -6 25 -15 25 -20 0 -5 15 0 34 11 44 27 78 26 113 -3 27 -23 28
-28 28 -118 l0 -93 -37 -3 -38 -3 0 73 c0 88 -14 114 -53 104 -25 -6 -26 -9
-29 -89 l-3 -82 -37 -3 -38 -3 0 71 c0 79 -11 110 -39 110 -30 0 -40 -22 -43
-100 l-3 -75 -37 -3 -38 -3 0 115 0 116 40 0 c22 0 40 -5 40 -11 0 -5 10 -3
22 5 27 19 58 20 93 4z m413 -8 c32 -20 52 -54 52 -91 0 -17 -8 -19 -85 -19
-86 0 -103 -8 -73 -38 15 -15 70 -16 84 -2 12 12 64 -6 64 -22 0 -18 -67 -48
-108 -48 -83 0 -139 58 -129 132 12 91 114 137 195 88z m-1711 -45 c31 -62 41
-60 68 10 14 39 20 45 46 45 27 0 33 -6 58 -62 l28 -63 28 63 28 62 83 0 84 0
0 -116 0 -115 -37 3 -38 3 -3 110 -3 110 -60 -112 c-52 -97 -64 -113 -85 -113
-21 0 -30 10 -53 60 l-28 60 -27 -60 c-24 -53 -31 -60 -55 -60 -26 0 -33 9
-85 109 -31 61 -56 112 -56 115 0 4 18 6 40 6 39 0 41 -2 67 -55z"/>
</g>
</svg>
